<?xml version="1.0" encoding="UTF-8" standalone="no"?>
<!-- Created with Inkscape (http://www.inkscape.org/) -->

<svg
   width="514.76483mm"
   height="679.45752mm"
   viewBox="0 0 514.76483 679.45752"
   version="1.1"
   id="svg1"
   xml:space="preserve"
   inkscape:version="1.3 (0e150ed6c4, 2023-07-21)"
   sodipodi:docname="drawing-1.svg"
   xmlns:inkscape="http://www.inkscape.org/namespaces/inkscape"
   xmlns:sodipodi="http://sodipodi.sourceforge.net/DTD/sodipodi-0.dtd"
   xmlns="http://www.w3.org/2000/svg"
   xmlns:svg="http://www.w3.org/2000/svg"><sodipodi:namedview
     id="namedview1"
     pagecolor="#ffffff"
     bordercolor="#000000"
     borderopacity="0.25"
     inkscape:showpageshadow="2"
     inkscape:pageopacity="0.0"
     inkscape:pagecheckerboard="0"
     inkscape:deskcolor="#d1d1d1"
     inkscape:document-units="mm"
     inkscape:zoom="1.0224691"
     inkscape:cx="7076.4977"
     inkscape:cy="1797.1204"
     inkscape:window-width="1366"
     inkscape:window-height="745"
     inkscape:window-x="-8"
     inkscape:window-y="-8"
     inkscape:window-maximized="1"
     inkscape:current-layer="layer1" /><defs
     id="defs1"><filter
       inkscape:collect="always"
       style="color-interpolation-filters:sRGB"
       id="filter14"
       x="-0.087088459"
       y="-0.10194079"
       width="1.1741769"
       height="1.2038816"><feGaussianBlur
         inkscape:collect="always"
         stdDeviation="0.20485994"
         id="feGaussianBlur14" /></filter><filter
       inkscape:collect="always"
       style="color-interpolation-filters:sRGB"
       id="filter15"
       x="-0.0044295948"
       y="-0.019497486"
       width="1.0088592"
       height="1.038995"><feGaussianBlur
         inkscape:collect="always"
         stdDeviation="0.030494068"
         id="feGaussianBlur15" /></filter><filter
       inkscape:collect="always"
       style="color-interpolation-filters:sRGB"
       id="filter16"
       x="-0.012309262"
       y="-0.02387173"
       width="1.0246185"
       height="1.0477435"><feGaussianBlur
         inkscape:collect="always"
         stdDeviation="0.070751799"
         id="feGaussianBlur16" /></filter><filter
       inkscape:collect="always"
       style="color-interpolation-filters:sRGB"
       id="filter20"
       x="-0.0098274326"
       y="-0.0050971337"
       width="1.0196549"
       height="1.0101943"><feGaussianBlur
         inkscape:collect="always"
         stdDeviation="0.016929067"
         id="feGaussianBlur20" /></filter><filter
       inkscape:collect="always"
       style="color-interpolation-filters:sRGB"
       id="filter21"
       x="-0.014883833"
       y="-0.0075606604"
       width="1.0297677"
       height="1.0151213"><feGaussianBlur
         inkscape:collect="always"
         stdDeviation="0.025371975"
         id="feGaussianBlur21" /></filter><filter
       inkscape:collect="always"
       style="color-interpolation-filters:sRGB"
       id="filter25"
       x="-0.026315345"
       y="-0.025430509"
       width="1.0526307"
       height="1.050861"><feGaussianBlur
         inkscape:collect="always"
         stdDeviation="0.047227168"
         id="feGaussianBlur25" /></filter><filter
       inkscape:collect="always"
       style="color-interpolation-filters:sRGB"
       id="filter29"
       x="-0.020886418"
       y="-0.010534758"
       width="1.0417728"
       height="1.0210695"><feGaussianBlur
         inkscape:collect="always"
         stdDeviation="0.033838606"
         id="feGaussianBlur29" /></filter><filter
       inkscape:collect="always"
       style="color-interpolation-filters:sRGB"
       id="filter30"
       x="-0.064162029"
       y="-0.052037696"
       width="1.1283241"
       height="1.1040754"><feGaussianBlur
         inkscape:collect="always"
         stdDeviation="0.17084209"
         id="feGaussianBlur30" /></filter><filter
       inkscape:collect="always"
       style="color-interpolation-filters:sRGB"
       id="filter31"
       x="-0.043615102"
       y="-0.018383825"
       width="1.0872302"
       height="1.0367677"><feGaussianBlur
         inkscape:collect="always"
         stdDeviation="0.10515119"
         id="feGaussianBlur31" /></filter><filter
       inkscape:collect="always"
       style="color-interpolation-filters:sRGB"
       id="filter35"
       x="-0.01034279"
       y="-0.012403712"
       width="1.0206856"
       height="1.0248074"><feGaussianBlur
         inkscape:collect="always"
         stdDeviation="0.049713839"
         id="feGaussianBlur35" /></filter><filter
       inkscape:collect="always"
       style="color-interpolation-filters:sRGB"
       id="filter53"
       x="-0.012134044"
       y="-0.012309605"
       width="1.0242681"
       height="1.0246192"><feGaussianBlur
         inkscape:collect="always"
         stdDeviation="0.058383963"
         id="feGaussianBlur53" /></filter><filter
       inkscape:collect="always"
       style="color-interpolation-filters:sRGB"
       id="filter54"
       x="-0.039383005"
       y="-0.038353356"
       width="1.1056552"
       height="1.0764522"><feGaussianBlur
         inkscape:collect="always"
         stdDeviation="0.041149696"
         id="feGaussianBlur54" /></filter><filter
       inkscape:collect="always"
       style="color-interpolation-filters:sRGB"
       id="filter55"
       x="-0.078339773"
       y="-0.035032767"
       width="1.155525"
       height="1.0700655"><feGaussianBlur
         inkscape:collect="always"
         stdDeviation="0.041149696"
         id="feGaussianBlur55" /></filter><filter
       inkscape:collect="always"
       style="color-interpolation-filters:sRGB"
       id="filter56"
       x="-0.020600828"
       y="-0.013030784"
       width="1.0412017"
       height="1.0260616"><feGaussianBlur
         inkscape:collect="always"
         stdDeviation="0.041149696"
         id="feGaussianBlur56" /></filter><filter
       inkscape:collect="always"
       style="color-interpolation-filters:sRGB"
       id="filter57"
       x="-0.14504069"
       y="-0.049710893"
       width="1.2901056"
       height="1.0994218"><feGaussianBlur
         inkscape:collect="always"
         stdDeviation="0.041149696"
         id="feGaussianBlur57" /></filter><filter
       inkscape:collect="always"
       style="color-interpolation-filters:sRGB"
       id="filter92"
       x="-0.0096440872"
       y="-0.018951193"
       width="1.0192882"
       height="1.0379024"><feGaussianBlur
         inkscape:collect="always"
         stdDeviation="0.60328147"
         id="feGaussianBlur92" /></filter><filter
       inkscape:collect="always"
       style="color-interpolation-filters:sRGB"
       id="filter93"
       x="-0.0094633215"
       y="-0.013525246"
       width="1.0189266"
       height="1.0270505"><feGaussianBlur
         inkscape:collect="always"
         stdDeviation="0.088453233"
         id="feGaussianBlur93" /></filter><filter
       inkscape:collect="always"
       style="color-interpolation-filters:sRGB"
       id="filter99"
       x="-0.0087682751"
       y="-0.0076676828"
       width="1.0175366"
       height="1.0153354"><feGaussianBlur
         inkscape:collect="always"
         stdDeviation="0.026578174"
         id="feGaussianBlur99" /></filter><filter
       inkscape:collect="always"
       style="color-interpolation-filters:sRGB"
       id="filter100"
       x="-0.12203221"
       y="-0.07052869"
       width="1.2440644"
       height="1.1410574"><feGaussianBlur
         inkscape:collect="always"
         stdDeviation="0.11216589"
         id="feGaussianBlur100" /></filter><filter
       inkscape:collect="always"
       style="color-interpolation-filters:sRGB"
       id="filter111"
       x="-0.043984239"
       y="-0.037489247"
       width="1.0879685"
       height="1.0749785"><feGaussianBlur
         inkscape:collect="always"
         stdDeviation="0.043365244"
         id="feGaussianBlur111" /></filter><filter
       inkscape:collect="always"
       style="color-interpolation-filters:sRGB"
       id="filter114"
       x="-0.011279407"
       y="-0.012092901"
       width="1.0225588"
       height="1.0241858"><feGaussianBlur
         inkscape:collect="always"
         stdDeviation="0.074814792"
         id="feGaussianBlur114" /></filter><filter
       inkscape:collect="always"
       style="color-interpolation-filters:sRGB"
       id="filter115"
       x="-0.013992871"
       y="-0.018094405"
       width="1.0279857"
       height="1.0361888"><feGaussianBlur
         inkscape:collect="always"
         stdDeviation="0.025822676"
         id="feGaussianBlur115" /></filter><filter
       inkscape:collect="always"
       style="color-interpolation-filters:sRGB"
       id="filter123"
       x="-0.12845424"
       y="-0.014374965"
       width="1.2569085"
       height="1.0287499"><feGaussianBlur
         inkscape:collect="always"
         stdDeviation="0.26549518"
         id="feGaussianBlur123" /></filter><filter
       inkscape:collect="always"
       style="color-interpolation-filters:sRGB"
       id="filter124"
       x="-0.086813136"
       y="-0.054510897"
       width="1.1736263"
       height="1.1090218"><feGaussianBlur
         inkscape:collect="always"
         stdDeviation="0.12636375"
         id="feGaussianBlur124" /></filter><filter
       inkscape:collect="always"
       style="color-interpolation-filters:sRGB"
       id="filter125"
       x="-0.0084183301"
       y="-0.019025194"
       width="1.0168367"
       height="1.0380504"><feGaussianBlur
         inkscape:collect="always"
         stdDeviation="0.031964095"
         id="feGaussianBlur125" /></filter><filter
       inkscape:collect="always"
       style="color-interpolation-filters:sRGB"
       id="filter229"
       x="-0.10036933"
       y="-0.066572555"
       width="1.2007387"
       height="1.1331451"><feGaussianBlur
         inkscape:collect="always"
         stdDeviation="6.4725762"
         id="feGaussianBlur229" /></filter></defs><g
     inkscape:label="Layer 1"
     inkscape:groupmode="layer"
     id="layer1"
     transform="translate(-1662.2498,-270.67941)"><g
       id="g230"
       transform="matrix(2.4454293,0,0,2.4454293,-2402.6646,-391.24797)"
       inkscape:export-filename="g230.png"
       inkscape:export-xdpi="96"
       inkscape:export-ydpi="96"><path
         style="opacity:0.454128;mix-blend-mode:normal;fill:#3d3d3d;fill-opacity:1;stroke:none;stroke-width:0.499999;stroke-linecap:round;stroke-dasharray:none;stroke-opacity:1;filter:url(#filter229)"
         d="m 1732.3866,296.23695 c 0,0 17.4886,0.7756 15.6772,9.18559 -1.8114,8.41 -6.5482,9.24059 -6.5482,9.24059 0,0 8.1512,-6.5986 11.6446,-6.08107 l 3.8815,-5.82229 c 0,0 29.2409,-9.96261 45.8022,4.91661 0,0 11.2521,-1.25226 18.627,19.57865 l 13.5854,-33.89874 c 0,0 5.8223,-2.97585 8.2806,4.01092 2.4583,6.98676 1.0351,10.35076 1.0351,10.35076 l -3.3234,44.44166 c 0,0 5.4644,13.74402 -1.2636,25.77678 -6.728,12.03276 -10.5467,9.44083 -10.5467,9.44083 0,0 -10.4436,19.74734 -24.1669,22.85795 0,0 6.8738,8.11077 4.8036,13.67431 l 5.131,8.62294 3.1355,1.19372 c 0,0 7.2981,16.59049 5.0985,30.30525 0,0 -0.2852,11.54429 -10.2982,16.33152 -14.5347,6.94905 -12.6391,0.36332 -12.6391,0.36332 l 10.0751,29.9482 c 0,0 9.8418,12.22522 -12.2985,14.7869 -22.1403,2.56169 -21.0034,-3.80826 -21.0034,-3.80826 l -5.6723,-22.32323 0.1292,20.02807 c 0,0 -5.4504,4.77047 -16.0599,5.54678 -10.6095,0.77631 -20.4244,-2.65874 -22.2358,-5.76396 -1.8113,-3.10523 -7.757,-14.32242 -2.219,-17.22693 1.0212,-0.53561 3.4859,-8.81658 2.4809,-11.03584 -5.0333,-11.11459 0.438,-19.02454 0.8966,-18.86522 0,0 -2.8944,-31.3571 -1.3074,-38.41396 0,0 -36.0809,-16.20435 -41.2563,-30.95418 -5.1753,-14.74984 2.329,-35.71013 2.329,-35.71013 0,0 10.8683,-19.14891 23.2892,-21.99537"
         id="path227"
         sodipodi:nodetypes="csccccccsccsccccccsccscccssssccscc"
         transform="matrix(1.1327078,0,0,1.0508203,-234.44374,-20.599999)" /><path
         style="fill:#27387c;fill-opacity:1;stroke:none;stroke-width:1.35569;stroke-linecap:round;stroke-dasharray:none;stroke-opacity:1"
         d="m 1807.2182,426.69294 c 10.6489,13.5439 14.3193,34.73854 14.3193,34.73854 l -7.9091,-3.10165 -11.6313,3.36014 c -2.3777,-14.37102 -14.526,-33.3428 -14.526,-33.3428 l 3.9287,6.82364 0.3101,25.43357 c 0,0 3.8255,12.51003 4.8593,17.47268 1.0339,4.96265 10.2355,30.08605 10.2355,30.08605 l -16.0252,11.37274 -10.2356,-7.23719 c -2.7914,-11.6829 -11.1318,-34.22897 -12.2282,-36.78771 -1.0967,-2.55875 -4.1672,-2.59529 -4.1672,-2.59529 0,0 -0.7311,7.89553 1.7546,17.83804 2.4856,9.94252 1.0236,22.66309 1.0236,22.66309 l -17.3996,2.92428 -7.7493,-13.013 c 1.6816,-6.65272 0.4385,-16.66838 0.4385,-16.66838 -8.1877,-43.57157 4.5328,-73.25291 4.5328,-73.25291 l -13.7441,-12.13571 c 0,0 -12.2819,-0.29243 -16.5222,-6.43339 l -1.0233,-18.86153 -19.5927,25.87977 c 0,0 15.0601,20.17745 46.7882,26.17222 0,0 2.2463,-12.4587 4.2243,-14.53576 1.9782,-2.07706 3.5607,-4.25304 3.5607,-4.25304 l 38.6731,-0.49454 z"
         id="path118"
         sodipodi:nodetypes="cccccccscccscscccccccccc" /><path
         style="opacity:1;mix-blend-mode:normal;fill:#566599;fill-opacity:1;stroke:none;stroke-width:0.499999;stroke-linecap:round;stroke-dasharray:none;stroke-opacity:1;filter:url(#filter123)"
         d="m 1718.0656,357.44622 c 0,0 -3.568,8.69143 -1.0978,28.91044 0,0 0.9149,8.14249 -0.5489,10.4297 l -1.1436,-2.33296 0.8691,-7.13611 -1.4181,-5.2606 c 0,0 -0.6861,-11.3446 -0.2287,-14.27223 0.4574,-2.92764 2.1042,-11.16162 2.1042,-11.16162 l 1.4639,-4.16274 1.2351,4.75741 z"
         id="path123"
         transform="matrix(2.162187,0,0,2.162187,-1967.2075,-349.87807)" /><path
         style="opacity:1;fill:#1c2560;fill-opacity:1;stroke:none;stroke-width:1.08109;stroke-linecap:round;stroke-dasharray:none;stroke-opacity:1"
         d="m 1732.7356,408.34914 c 0,0 1.088,6.62685 4.9453,10.38536 3.8574,3.7585 -28.3865,-12.36348 -33.233,-19.58373 -4.8465,-7.22032 -8.1104,2.86827 -8.1104,2.86827 0,0 25.3175,24.79983 45.7943,26.01277 2.3801,0.14098 3.0409,-13.92615 4.5713,-14.18025 12.6918,-2.10731 -0.1211,-2.23846 -0.1211,-2.23846 z"
         id="path122"
         sodipodi:nodetypes="csscsscc" /><path
         style="opacity:1;mix-blend-mode:normal;fill:#566599;fill-opacity:1;stroke:none;stroke-width:0.499999;stroke-linecap:round;stroke-dasharray:none;stroke-opacity:1;filter:url(#filter124)"
         d="m 1744.8582,359.89587 2.1996,4.72255 1.2938,-1.03508 -2.523,-4.52845 z"
         id="path124"
         transform="matrix(2.162187,0,0,2.162187,-1967.2075,-349.87807)" /><path
         style="opacity:1;fill:#1c2560;fill-opacity:1;stroke:none;stroke-width:1.08109;stroke-linecap:round;stroke-dasharray:none;stroke-opacity:1"
         d="m 1783.8213,428.00435 c 0,0 -1.2588,34.12993 -0.1405,40.70413 1.1192,6.57421 13.7081,39.72504 13.7081,39.72504 l 10.2109,1.53859 -10.3508,-28.81456 -5.5951,-20.56188 0.1405,-25.03793 5.735,11.46988 3.2171,-1.95829 2.1146,-0.91556 c 0,0 -7.9125,-14.24269 -9.2972,-15.82522 -1.3848,-1.58255 6.3301,-0.79125 6.3301,-0.79125 l -7.9128,-7.31918 z"
         id="path121" /><path
         style="opacity:1;mix-blend-mode:normal;fill:#566599;fill-opacity:1;stroke:none;stroke-width:0.499999;stroke-linecap:round;stroke-dasharray:none;stroke-opacity:1;filter:url(#filter125)"
         d="m 1710.6093,348.64044 c -4.0484,0.66331 -7.868,-3.27073 -7.868,-3.27073 l 1.1207,-0.68614 c 0,0 4.6888,3.33933 7.0218,2.7904 2.333,-0.54893 -0.2745,1.16647 -0.2745,1.16647 z"
         id="path125"
         transform="matrix(2.162187,0,0,2.162187,-1967.2075,-349.87807)" /><path
         style="fill:none;fill-opacity:1;stroke:#000000;stroke-width:1.35569;stroke-linecap:round;stroke-dasharray:none;stroke-opacity:1"
         d="m 1807.2182,426.69294 c 10.6489,13.5439 14.3193,34.73854 14.3193,34.73854 l -7.9091,-3.10165 -11.6313,3.36014 c -2.3777,-14.37102 -14.526,-33.3428 -14.526,-33.3428 l 3.9287,6.82364 0.3101,25.43357 c 0,0 3.8255,12.51003 4.8593,17.47268 1.0339,4.96265 10.2355,30.08605 10.2355,30.08605 l -16.0252,11.37274 -10.2356,-7.23719 c -2.7914,-11.6829 -11.1318,-34.22897 -12.2282,-36.78771 -1.0967,-2.55875 -4.1672,-2.59529 -4.1672,-2.59529 0,0 0.1794,7.7112 1.7546,17.83804 3.722,23.93796 -0.6085,23.9489 -0.6085,23.9489 l -15.7675,1.63847 -7.7493,-13.013 c 1.6816,-6.65272 0.4385,-16.66838 0.4385,-16.66838 -8.1877,-43.57157 4.5328,-73.25291 4.5328,-73.25291 l -13.7441,-12.13571 c 0,0 -12.2819,-0.29243 -16.5222,-6.43339 l -1.0233,-18.86153 -19.5927,25.87977 c 0,0 15.0601,20.17745 46.7882,26.17222 0,0 2.2463,-12.4587 4.2243,-14.53576 1.9782,-2.07706 3.5607,-4.25304 3.5607,-4.25304 l 38.6731,-0.49454 z"
         id="path8"
         sodipodi:nodetypes="cccccccscccscsccccccccccsccc" /><path
         style="opacity:1;fill:#1c2560;fill-opacity:1;stroke:none;stroke-width:1.08109;stroke-linecap:round;stroke-dasharray:none;stroke-opacity:1"
         d="m 1752.6089,466.44201 3.9254,6.33004 c 1.5828,2.55239 3.2978,42.49642 3.2978,42.49642 l 7.4224,-1.68138 c 0,0 -0.1968,-19.08924 -1.3849,-23.44116 -1.1869,-4.35198 -2.3808,-15.39568 -2.3808,-15.39568 v -2.67051 z"
         id="path120"
         sodipodi:nodetypes="cscccccc" /><g
         id="g46"
         transform="matrix(2.162187,0,0,2.162187,-2354.6849,-574.85004)"><path
           style="fill:#fd8f00;fill-opacity:1;stroke:none;stroke-width:0.327;stroke-linecap:round;stroke-dasharray:none;stroke-opacity:1"
           d="m 1904.9468,504.53932 c -9.0276,2.06251 -13.9303,0.67622 -13.9303,0.67622 0,0 -1.3186,-0.27048 -0.6424,-2.46822 0.6762,-2.19776 4.125,-3.82071 4.125,-3.82071 0,0 4.6322,0.16907 5.748,4.32788 0,0 5.0041,-0.40573 6.2213,-1.31864 0,0 0.2872,1.87651 -1.5216,2.60347 z"
           id="path12" /><path
           style="mix-blend-mode:normal;fill:#f3690e;fill-opacity:1;stroke:none;stroke-width:0.527;stroke-linecap:round;stroke-dasharray:none;stroke-opacity:1;filter:url(#filter15)"
           d="m 1890.0726,503.46146 c 0,0 13.8907,0.0717 16.4967,-1.62575 0,0 -0.096,2.27129 -1.5301,2.67773 -1.4345,0.40644 -6.9812,1.05197 -6.9812,1.05197 l -5.3794,0.0239 -2.0561,-0.50208 c 0,0 -0.7172,-1.26717 -0.5499,-1.62578 z"
           id="path13" /><path
           style="opacity:0.551247;fill:#ffcb68;fill-opacity:1;stroke:none;stroke-width:0.327001;stroke-linecap:round;stroke-dasharray:none;stroke-opacity:1;filter:url(#filter14)"
           d="m 1890.6224,502.19432 c 0,0 -1.1236,2.77336 1.052,0.8368 2.1757,-1.93657 4.3035,-3.77751 4.3035,-3.77751 l -1.3867,-0.35864 -2.1278,1.29106 z"
           id="path14" /><path
           style="fill:none;fill-opacity:1;stroke:#722f01;stroke-width:0.327;stroke-linecap:round;stroke-dasharray:none;stroke-opacity:1"
           d="m 1904.9468,504.53932 c -9.0276,2.06251 -13.9303,0.67622 -13.9303,0.67622 0,0 -1.3186,-0.27048 -0.6424,-2.46822 0.6762,-2.19776 4.125,-3.82071 4.125,-3.82071 0,0 4.6322,0.16907 5.748,4.32788 0,0 5.0041,-0.40573 6.2213,-1.31864 0,0 0.2872,1.87651 -1.5216,2.60347 z"
           id="path9" /></g><g
         id="g45"
         transform="matrix(2.162187,0,0,2.162187,-2354.6849,-574.85004)"><path
           style="opacity:1;fill:#fe9200;fill-opacity:1;stroke:none;stroke-width:0.327001;stroke-linecap:round;stroke-dasharray:none;stroke-opacity:1"
           d="m 1914.7866,504.23337 c 0,0 3.2754,-4.78168 7.3159,-4.35134 4.0405,0.43037 2.5104,4.92514 2.5104,4.92514 l -3.0124,1.14758 z"
           id="path16" /><path
           style="opacity:0.98892;fill:#f26612;fill-opacity:1;stroke:none;stroke-width:0.327001;stroke-linecap:round;stroke-dasharray:none;stroke-opacity:1;filter:url(#filter16)"
           d="m 1912.7152,502.81044 c 0,0 6.7623,3.27972 10.1096,2.50206 3.3474,-0.77766 -1.4539,-5.47746 -1.4539,-5.47746 0,0 3.4572,0.11874 4.9156,3.20291 0,0 0.3586,0.71725 0.1674,1.88876 -0.1913,1.17151 -1.5063,1.64967 -1.5063,1.64967 0,0 -2.6538,0.45426 -4.4947,0.35863 -1.841,-0.0956 -3.3711,-0.33472 -3.3711,-0.33472 l -2.4147,-0.66943 c 0,0 -1.052,-0.47817 -1.5063,-0.98024 -0.4542,-0.50208 -0.4456,-2.14018 -0.4456,-2.14018 z"
           id="path15" /><path
           style="fill:none;fill-opacity:1;stroke:#72401f;stroke-width:0.327001;stroke-linecap:round;stroke-dasharray:none;stroke-opacity:1"
           d="m 1914.2089,505.61161 c 2.7734,1.86485 9.3172,1.25026 9.3172,1.25026 3.7869,-0.23668 2.9585,-3.48259 2.9585,-3.48259 -5.376,-8.35144 -11.3945,0.47337 -11.3945,0.47337 l -2.4344,-1.04815 c 0,0 -0.3116,1.97031 1.5532,2.80711 z"
           id="path10" /></g><g
         id="g44"
         transform="matrix(2.162187,0,0,2.162187,-2354.6849,-574.85004)"><path
           style="opacity:0.98892;fill:#08c0d3;fill-opacity:1;stroke:none;stroke-width:0.327001;stroke-linecap:round;stroke-dasharray:none;stroke-opacity:1"
           d="m 1897.2528,487.36655 -2.6637,-0.24115 -0.5917,1.47079 -0.4565,2.75563 0.1691,1.65677 1.6568,-0.16907"
           id="path19"
           sodipodi:nodetypes="cccccc" /><path
           style="opacity:0.98892;mix-blend-mode:normal;fill:#0392dc;fill-opacity:1;stroke:none;stroke-width:0.327001;stroke-linecap:round;stroke-dasharray:none;stroke-opacity:1;filter:url(#filter21)"
           d="m 1895.7725,487.10851 c 1.5389,5.308 -1.9611,5.84939 -1.9611,5.84939 l 0.5748,1.38626 0.6087,0.2705 c 0,0 2.0286,1.52151 2.4682,-0.50718 0.4395,-2.02869 0.4395,-1.82582 0.4395,-1.82582 l -0.4395,-4.86885 -0.8115,-0.27049 z"
           id="path20"
           sodipodi:nodetypes="ccccscccc" /><path
           style="opacity:0.98892;fill:#0593dc;fill-opacity:1;stroke:none;stroke-width:0.327001;stroke-linecap:round;stroke-dasharray:none;stroke-opacity:1"
           d="m 1898.4883,490.88571 c 0,0 6.0488,0.50207 7.0051,-0.35865 l 0.1435,2.03223 c 0,0 -5.0925,1.19541 -7.3159,0.14345 -2.2235,-1.05197 0.1673,-1.81703 0.1673,-1.81703 z"
           id="path21" /><path
           style="opacity:0.98892;mix-blend-mode:normal;fill:#0d59d4;fill-opacity:1;stroke:none;stroke-width:0.327001;stroke-linecap:round;stroke-dasharray:none;stroke-opacity:1;filter:url(#filter20)"
           d="m 1898.4605,492.79732 c 0.051,0.70159 -1.2256,2.38371 -1.2256,2.38371 l -2.0372,-0.0423 -0.7438,-0.79458 c 4.9702,0.33811 2.3668,-7.13422 2.3668,-7.13422 0,0 1.4524,0.16125 1.7632,3.58014 0,0 0.04,1.48022 -0.1234,2.00725 z"
           id="path17" /><path
           style="fill:none;fill-opacity:1;stroke:#000000;stroke-width:0.227;stroke-linecap:round;stroke-dasharray:none;stroke-opacity:1"
           d="m 1894.5153,487.09422 2.2823,0.0169 c 0,0 1.7244,0.49027 1.792,3.80381 0,0 5.8156,0.35502 6.83,-0.38883 l 0.2028,2.02869 c 0,0 -3.1106,1.06506 -7.1511,0.27049 0,0 -0.6593,2.13012 -1.3186,2.3499 l -1.8935,-0.0169 c 0,0 -3.2988,-1.96865 -0.7439,-8.06405 z"
           id="path11" /></g><g
         id="g43"
         transform="matrix(2.162187,0,0,2.162187,-2354.6849,-574.85004)"><path
           style="opacity:0.98892;fill:#019fdf;fill-opacity:1;stroke:none;stroke-width:0.327001;stroke-linecap:round;stroke-dasharray:none;stroke-opacity:1"
           d="m 1917.9257,485.29772 c 0,0 -2.9885,-0.16735 -3.4906,1.17152 -0.5021,1.33884 -0.3586,2.72555 -0.3586,2.72555 l 0.4782,2.15174 3.5862,2.08003 1.0281,-1.50623 z"
           id="path24"
           sodipodi:nodetypes="csc" /><path
           style="opacity:0.98892;fill:#115ecc;fill-opacity:1;stroke:none;stroke-width:0.327001;stroke-linecap:round;stroke-dasharray:none;stroke-opacity:1"
           d="m 1914.5307,491.01182 c 6.8617,5.73799 3.1081,-5.66629 3.1081,-5.66629 l 0.6456,-0.0717 1.7692,2.24738 0.5021,0.90852 0.096,0.64552 -0.4065,3.46671 -0.3108,0.78897 -1.6018,0.59771 -1.4106,0.0239 -1.8649,-1.88876 z"
           id="path23" /><path
           style="opacity:1;fill:#75d6fd;fill-opacity:1;stroke:none;stroke-width:0.327001;stroke-linecap:round;stroke-dasharray:none;stroke-opacity:1;filter:url(#filter25)"
           d="m 1918.5234,485.65636 c 0,0 -3.2754,0.35862 -3.2515,1.76921 0.024,1.41058 0.072,2.03219 0.072,2.03219 0,0 -0.8846,1.19541 -1.0998,-1.02804 -0.2151,-2.22348 0.8846,-2.65382 0.8846,-2.65382 l 1.6258,-0.45427 1.4823,0.0238 z"
           id="path25" /><path
           style="opacity:0.98892;fill:none;fill-opacity:1;stroke:#000000;stroke-width:0.227;stroke-linecap:round;stroke-dasharray:none;stroke-opacity:1"
           d="m 1914.3873,486.61268 -0.3587,2.58209 c 0,0 0.2869,2.31913 0.9085,2.74947 l 1.8888,1.93658 c 0,0 2.606,0.47816 3.4189,-1.17151 l 0.3586,-3.22762 c 0,0 0.1913,-0.74116 -0.3108,-1.55405 -0.502,-0.81288 -2.0322,-2.606 -2.0322,-2.606 0,0 -2.9167,-0.43037 -3.8731,1.29104 z"
           id="path22" /><path
           style="opacity:1;fill:#019fdf;fill-opacity:0.992157;stroke:#000000;stroke-width:0.227;stroke-linecap:round;stroke-dasharray:none;stroke-opacity:1"
           d="m 1914.3873,491.00524 c -2.1757,0.59769 -5.2598,0.52599 -5.2598,0.52599 l -0.5978,-1.57796 c 2.5104,0.43034 5.5707,-0.9085 5.5707,-0.9085 z"
           id="path26" /></g><g
         id="g42"
         transform="matrix(2.162187,0,0,2.162187,-2354.6849,-574.85004)"><g
           id="g41"><path
             style="opacity:1;fill:#f59602;fill-opacity:1;stroke:#772612;stroke-width:0;stroke-linecap:round;stroke-dasharray:none;stroke-opacity:1"
             d="m 1923.4971,478.28431 0.4396,7.57377 7.9853,-0.48905 0.6028,-2.41874 -0.4396,-3.48258 z"
             id="path33"
             sodipodi:nodetypes="cccccc" /><path
             style="opacity:1;fill:#f56608;fill-opacity:1;stroke:#772612;stroke-width:0;stroke-linecap:round;stroke-dasharray:none;stroke-opacity:1"
             d="m 1932.501,482.83806 c -1.1327,2.1132 -3.1107,2.53584 -3.1107,2.53584 0,0 -3.7023,0.99746 -4.8519,-2.46824 -1.1496,-3.46567 2.5865,-3.73616 2.5865,-3.73616 l -2.1977,-0.96362 -1.4539,0.10144 -1.9948,2.3668 c 0,0 -0.541,0.8791 -0.5072,1.36936 0.034,0.49027 0.169,1.20031 0.169,1.20031 l 0.5748,0.98053 0.7946,0.2874 0.6255,2.38371 c 0,0 0.3719,0.52408 1.1834,0.72695 0.8115,0.20287 0.8115,0.20287 0.8115,0.20287 l 3.3811,-0.40574 3.0938,-1.63986 z"
             id="path34" /></g><path
           style="opacity:1;mix-blend-mode:normal;fill:#992700;fill-opacity:1;stroke:#772612;stroke-width:0;stroke-linecap:round;stroke-dasharray:none;stroke-opacity:1;filter:url(#filter35)"
           d="m 1923.2548,478.3857 c 0,0 -2.2713,2.60602 -2.2833,3.88509 -0.012,1.27911 0.801,2.13979 0.801,2.13979 l 0.6455,0.27496 c 0,0 -0.1315,1.80509 0.5379,2.27129 0.6695,0.46622 1.1835,0.86072 1.1835,0.86072 1.2791,0.19598 2.5582,0.2423 3.8373,0.11953 l 3.2993,-1.61382 1.2313,-2.88094 c 0,0 -1.8383,3.78105 -4.9489,3.86556 0,0 -1.1178,0.23471 -0.2213,-0.84714 0,0 -0.6694,0.23311 -1.1894,0.90852 0,0 -2.857,0.96231 -3.0842,-2.19359 0,0 0.7419,-2.37315 1.2068,0.35712 0,0 0.6255,-1.28483 0,-2.17238 -0.6256,-0.88755 -1.4708,0.448 -1.4708,0.448 0,0 -0.7946,0.63396 -1.1074,-0.49027 -0.3127,-1.12423 0.8538,-3.49103 0.8538,-3.49103"
           id="path35"
           sodipodi:nodetypes="csccscccccccccscsc" /><path
           style="opacity:1;fill:none;fill-opacity:1;stroke:#772612;stroke-width:0.227;stroke-linecap:round;stroke-dasharray:none;stroke-opacity:1"
           d="m 1932.0353,479.21987 c 1.2671,4.37522 -0.5739,6.69433 -0.5739,6.69433 -3.634,3.22763 -7.5399,1.77357 -7.5399,1.77357 0,0 0.083,0.14827 -0.9236,-0.90092 -1.0067,-1.04903 -0.538,-2.30717 -0.538,-2.30717 0,0 -0.7411,0.19127 -1.4106,-1.58988 -0.6694,-1.78117 2.4578,-4.61341 2.4578,-4.61341 l 6.1851,-0.58666 z"
           id="path32"
           sodipodi:nodetypes="cscsccccc" /></g><g
         id="g40"
         transform="matrix(2.162187,0,0,2.162187,-2354.6849,-574.85004)"><path
           style="opacity:1;fill:#05a4ea;fill-opacity:1;stroke:none;stroke-width:0.427;stroke-linecap:round;stroke-dasharray:none;stroke-opacity:1"
           d="m 1921.7682,471.90791 1.5215,7.26948 c 0,0 0.4396,-0.40574 1.7244,0.23667 1.2849,0.64244 2.5697,1.35247 2.5697,1.35247 l 2.8064,0.47337 0.9467,-0.87911 0.6762,-1.89343 0.034,-2.6035 -1.082,-3.92213 -1.6905,-3.78688 -0.3043,-0.71003 -2.5359,0.0338 -1.2172,0.57478 -0.8791,1.31866 -0.541,1.55532 z"
           id="path28" /><path
           style="opacity:1;mix-blend-mode:normal;fill:#005ac4;fill-opacity:1;stroke:none;stroke-width:0.427;stroke-linecap:round;stroke-dasharray:none;stroke-opacity:1;filter:url(#filter29)"
           d="m 1924.1688,479.14358 c -0.1014,-3.2121 -2.2315,-7.43852 -2.2315,-7.43852 l -1.6568,0.91291 2.2654,6.79611 z"
           id="path29" /><path
           style="opacity:1;mix-blend-mode:normal;fill:#a2cdff;fill-opacity:1;stroke:none;stroke-width:0.427;stroke-linecap:round;stroke-dasharray:none;stroke-opacity:1;filter:url(#filter31)"
           d="m 1930.2549,481.0032 c 3.2459,-3.17828 -1.8258,-12.9836 -1.8258,-12.9836 0,0 -0.034,0.16905 -1.4201,0.13525 -1.3863,-0.0338 -0.5072,-0.71003 -0.5072,-0.71003 l 2.333,-0.16906 1.4201,3.17827 1.2172,3.85451 0.541,2.77254 -0.3043,2.80636 -0.6762,0.98053 z"
           id="path31" /><path
           style="opacity:1;fill:none;fill-opacity:0.992157;stroke:#000000;stroke-width:0.427;stroke-linecap:round;stroke-dasharray:none;stroke-opacity:1"
           d="m 1922.4923,479.45752 c 1.9365,-0.90851 4.3752,1.00415 4.3752,1.00415 4.6143,2.03221 4.8755,-0.95577 4.8755,-0.95577 1.2172,-5.24078 -2.9389,-12.09817 -2.9389,-12.09817 0,0 -1.6975,-0.11954 -3.0125,0.19126 -1.3149,0.31081 -1.9366,3.34717 -1.9366,3.34717 -1.6497,0.263 -3.5862,1.7214 -3.5862,1.7214 z"
           id="path27" /><path
           style="opacity:1;mix-blend-mode:normal;fill:#005ac4;fill-opacity:1;stroke:none;stroke-width:0.427;stroke-linecap:round;stroke-dasharray:none;stroke-opacity:1;filter:url(#filter30)"
           d="m 1930.7283,479.00834 c -3.1107,1.11578 -4.3955,-1.18342 -4.3955,-1.18342 -0.4734,-0.64241 -1.9949,-6.39035 -1.9949,-6.39035 0,0 2.2992,7.87808 6.3904,7.57377 z"
           id="path30" /></g><path
         style="opacity:1;fill:#01a3e2;fill-opacity:1;stroke:none;stroke-width:0.864875;stroke-linecap:round;stroke-dasharray:none;stroke-opacity:1"
         d="m 1749.8465,411.11858 c 0,0 -6.33,8.60499 -0.5933,15.03401 0,0 4.5496,4.84646 4.154,8.50605 0,0 0.5935,8.60498 10.5832,8.7039 9.9898,0.0988 13.3526,-10.48423 13.3526,-10.48423 0,0 1.7308,-4.05522 6.6267,-5.04429 0,0 3.4219,-0.70332 5.0057,-3.08642 1.7178,-2.58465 2.7877,-5.855 2.907,-13.13448 l -11.671,1.58252 c 0,0 -8.7039,7.81374 -15.4298,9.29734 0,0 -4.7476,0.39564 -9.1984,-9.49513 -4.4509,-9.8908 -4.4509,-9.8908 -4.4509,-9.8908 z"
         id="path107"
         sodipodi:nodetypes="cccsccsc" /><path
         style="opacity:1;mix-blend-mode:normal;fill:#0b63cf;fill-opacity:1;stroke:none;stroke-width:0.4;stroke-linecap:round;stroke-dasharray:none;stroke-opacity:1;filter:url(#filter115)"
         d="m 1723.5778,356.14251 c -2.2414,-0.0686 -4.429,-3.42506 -4.429,-3.42506 l 3.011,0.90913 z"
         id="path113"
         sodipodi:nodetypes="cccc"
         transform="matrix(2.162187,0,0,2.162187,-1967.2075,-349.87807)" /><path
         style="opacity:1;mix-blend-mode:normal;fill:#0b63cf;fill-opacity:1;stroke:none;stroke-width:0.4;stroke-linecap:round;stroke-dasharray:none;stroke-opacity:1;filter:url(#filter114)"
         d="m 1722.8305,366.10633 c 0,0 6.1781,-1.84373 7.4073,-4.46376 1.2291,-2.62004 4.1079,-4.33438 4.1079,-4.33438 0,0 3.6228,-2.62004 0.744,-1.84372 -2.8788,0.77628 -5.7252,0.25876 -5.7252,0.25876 0,0 2.6847,-1.90842 3.1052,-2.23188 0.4205,-0.32346 6.1781,-1.48792 6.1781,-1.48792 0,0 0.3882,6.33984 -3.461,7.63368 -3.8492,1.29385 -3.3964,2.71708 -3.3964,2.71708 0,0 -2.0378,4.94896 -5.9517,4.46377 -3.9138,-0.4852 -3.0082,-0.71163 -3.0082,-0.71163 z"
         id="path114"
         transform="matrix(2.162187,0,0,2.162187,-1967.2075,-349.87807)" /><path
         style="opacity:1;fill:none;fill-opacity:1;stroke:#000000;stroke-width:0.864875;stroke-linecap:round;stroke-dasharray:none;stroke-opacity:1"
         d="m 1749.8465,411.11858 c 0,0 -6.33,8.60499 -0.5933,15.03401 0,0 4.5496,4.84646 4.154,8.50605 0,0 0.5935,8.60498 10.5832,8.7039 9.9898,0.0988 13.3526,-10.48423 13.3526,-10.48423 0,0 1.7308,-4.05522 6.6267,-5.04429 0,0 3.4219,-0.70332 5.0057,-3.08642 1.7178,-2.58465 2.7877,-5.855 2.907,-13.13448 l -11.671,1.58252 c 0,0 -8.7039,7.81374 -15.4298,9.29734 0,0 -4.7476,0.39564 -9.1984,-9.49513 -4.4509,-9.8908 -4.4509,-9.8908 -4.4509,-9.8908 z"
         id="path106"
         sodipodi:nodetypes="cccsccsc" /><g
         id="g117"
         transform="matrix(2.162187,0,0,2.162187,-2397.1427,-582.46122)"><path
           style="opacity:1;fill:#f79109;fill-opacity:1;stroke:none;stroke-width:0.4;stroke-linecap:round;stroke-dasharray:none;stroke-opacity:1"
           d="m 1917.1712,459.07242 c -6.1296,0.2426 -5.7252,-5.25623 -5.7252,-5.25623 0,0 4.6416,5.17535 5.7252,5.25623 z"
           id="path102" /><path
           style="opacity:1;fill:#2871be;fill-opacity:1;stroke:none;stroke-width:0.4;stroke-linecap:round;stroke-dasharray:none;stroke-opacity:1"
           d="m 1916.6087,460.99575 c -7.8278,0.58225 -7.2779,-6.69565 -7.2779,-6.69565 0,0 1.1968,-0.61456 2.0055,-0.42049 0,0 -0.5499,5.30477 5.8223,5.24008 z"
           id="path101" /><path
           style="opacity:1;fill:none;fill-opacity:1;stroke:#000000;stroke-width:0.4;stroke-linecap:round;stroke-dasharray:none;stroke-opacity:1"
           d="m 1916.4486,461.01862 c -7.8278,0.58225 -7.1178,-6.71852 -7.1178,-6.71852 0,0 1.1968,-0.61456 2.0055,-0.42049 0,0 -0.527,5.37339 5.8452,5.3087 z"
           id="path100"
           sodipodi:nodetypes="ccccc" /></g><g
         id="g120"
         transform="matrix(2.162187,0,0,2.162187,-2403.9843,-579.24527)"><path
           style="opacity:1;fill:#28a8d9;fill-opacity:1;stroke:none;stroke-width:0.414488;stroke-linecap:round;stroke-dasharray:none;stroke-opacity:1"
           id="path98"
           sodipodi:type="arc"
           sodipodi:cx="1598.7166"
           sodipodi:cy="-876.13605"
           sodipodi:rx="6.1250148"
           sodipodi:ry="3.1200306"
           sodipodi:start="0"
           sodipodi:end="6.2032733"
           sodipodi:open="true"
           sodipodi:arc-type="arc"
           d="m 1604.8416,-876.13605 a 6.1250148,3.1200306 0 0 1 -6.0027,3.11941 6.1250148,3.1200306 0 0 1 -6.2425,-2.99478 6.1250148,3.1200306 0 0 1 5.7533,-3.23906 6.1250148,3.1200306 0 0 1 6.4723,2.86537"
           transform="matrix(0.78162192,0.62375249,-0.79150617,0.61116117,0,0)" /><path
           style="opacity:1;fill:#2c64cc;fill-opacity:1;stroke:none;stroke-width:0.4;stroke-linecap:round;stroke-dasharray:none;stroke-opacity:1;filter:url(#filter99)"
           d="m 1945.0262,463.8018 c 0,0 -1.3265,0.11435 -0.7776,1.87553 0,0 -5.7867,-2.44733 -6.4271,-5.87815 -0.6404,-3.43083 3.3165,-2.24148 3.3165,-2.24148 z"
           id="path99" /><path
           style="opacity:1;fill:none;fill-opacity:1;stroke:#000000;stroke-width:0.414488;stroke-linecap:round;stroke-dasharray:none;stroke-opacity:1"
           id="path95"
           sodipodi:type="arc"
           sodipodi:cx="1598.7166"
           sodipodi:cy="-876.13605"
           sodipodi:rx="6.1250148"
           sodipodi:ry="3.1200306"
           sodipodi:start="0"
           sodipodi:end="6.2032733"
           sodipodi:open="true"
           sodipodi:arc-type="arc"
           d="m 1604.8416,-876.13605 a 6.1250148,3.1200306 0 0 1 -6.0027,3.11941 6.1250148,3.1200306 0 0 1 -6.2425,-2.99478 6.1250148,3.1200306 0 0 1 5.7533,-3.23906 6.1250148,3.1200306 0 0 1 6.4723,2.86537"
           transform="matrix(0.78162192,0.62375249,-0.79150617,0.61116117,0,0)" /><path
           style="opacity:1;fill:#f98502;fill-opacity:1;stroke:none;stroke-width:0.304702;stroke-linecap:round;stroke-dasharray:none;stroke-opacity:1"
           id="path96"
           sodipodi:type="arc"
           sodipodi:cx="1754.3413"
           sodipodi:cy="-771.49542"
           sodipodi:rx="4.4476056"
           sodipodi:ry="2.3220267"
           sodipodi:start="0"
           sodipodi:end="6.2032733"
           sodipodi:open="true"
           sodipodi:arc-type="arc"
           d="m 1758.7889,-771.49542 a 4.4476056,2.3220267 0 0 1 -4.3587,2.32156 4.4476056,2.3220267 0 0 1 -4.5329,-2.22881 4.4476056,2.3220267 0 0 1 4.1776,-2.41061 4.4476056,2.3220267 0 0 1 4.6998,2.1325"
           transform="matrix(0.81015573,0.58621472,-0.67710976,0.73588203,0,0)" /><path
           style="opacity:1;mix-blend-mode:normal;fill:#f0bb22;fill-opacity:1;stroke:none;stroke-width:0.4;stroke-linecap:round;stroke-dasharray:none;stroke-opacity:1;filter:url(#filter100)"
           d="m 1947.2885,463.34204 c -3.1052,-2.91116 -1.4232,-3.81686 -1.4232,-3.81686 0,0 1.6982,1.3909 1.7467,2.39363 0.049,1.00273 -0.3235,1.42323 -0.3235,1.42323 z"
           id="path97" /><path
           style="opacity:1;fill:none;fill-opacity:1;stroke:#000000;stroke-width:0.304702;stroke-linecap:round;stroke-dasharray:none;stroke-opacity:1"
           id="path94"
           sodipodi:type="arc"
           sodipodi:cx="1754.3413"
           sodipodi:cy="-771.49542"
           sodipodi:rx="4.4476056"
           sodipodi:ry="2.3220267"
           sodipodi:start="0"
           sodipodi:end="6.2032733"
           sodipodi:open="true"
           sodipodi:arc-type="arc"
           d="m 1758.7889,-771.49542 a 4.4476056,2.3220267 0 0 1 -4.3587,2.32156 4.4476056,2.3220267 0 0 1 -4.5329,-2.22881 4.4476056,2.3220267 0 0 1 4.1776,-2.41061 4.4476056,2.3220267 0 0 1 4.6998,2.1325"
           transform="matrix(0.81015573,0.58621472,-0.67710976,0.73588203,0,0)" /></g><g
         id="g118"
         transform="matrix(2.162187,0,0,2.162187,-2396.2109,-580.88494)"><path
           style="opacity:1;fill:#0c7fd8;fill-opacity:1;stroke:none;stroke-width:0.4;stroke-linecap:round;stroke-dasharray:none;stroke-opacity:1"
           d="m 1907.7555,446.15491 c 0,0 -6.7927,-3.81683 -3.2346,-16.81999 3.558,-13.00313 6.0811,-21.21905 6.0811,-21.21905 0,0 2.3803,0.38102 2.0144,3.17142 -0.366,2.79043 -0.4117,5.94678 -0.4117,5.94678"
           id="path104" /><path
           style="opacity:1;fill:#3dafd3;fill-opacity:1;stroke:none;stroke-width:0.4;stroke-linecap:round;stroke-dasharray:none;stroke-opacity:1"
           d="m 1911.5642,408.4969 c 0,0 -9.6978,27.81255 -4.3914,35.77206 0.4574,1.64681 0.4574,1.64681 0.4574,1.64681 0,0 -4.4829,-2.10424 -3.7053,-9.83503 0.7777,-7.73079 1.8298,-11.11587 1.8298,-11.11587 l 4.8489,-16.92541 z"
           id="path105" /><path
           style="opacity:1;fill:none;fill-opacity:1;stroke:#000000;stroke-width:0.4;stroke-linecap:round;stroke-dasharray:none;stroke-opacity:1"
           d="m 1907.7555,446.15491 c 0,0 -6.7927,-3.81683 -3.2346,-16.81999 3.558,-13.00313 6.0811,-21.21905 6.0811,-21.21905 0,0 2.3803,0.38102 2.0144,3.17142 -0.366,2.79043 -0.4117,5.94678 -0.4117,5.94678"
           id="path103" /><path
           style="fill:#2b3879;fill-opacity:1;stroke:none;stroke-width:0.5;stroke-linecap:round;stroke-dasharray:none;stroke-opacity:1"
           d="m 1906.5816,441.48645 c 0,0 2.7049,17.10862 15.1475,19.13731 12.4427,2.0287 24.4795,-5.95082 24.4795,-5.95082 0,0 8.7234,-6.01845 8.5882,-17.10862 -0.1353,-11.09014 -1.4201,-13.18646 -1.4201,-13.18646 0,0 -4.8689,-9.60247 -11.0902,-11.42828 -6.2213,-1.82581 -21.9775,-0.541 -21.9775,-0.541 0,0 -12.3073,4.66598 -14.0655,15.48567 -1.7582,10.81966 0.3381,13.5922 0.3381,13.5922 z"
           id="path86" /><path
           style="fill:#646fa9;fill-opacity:1;stroke:none;stroke-width:0.4;stroke-linecap:round;stroke-dasharray:none;stroke-opacity:1"
           d="m 1921.9385,459.65565 c -1.8114,0.12938 -5.5496,-2.33519 -5.5496,-2.33519 0,0 -9.6063,-8.50844 -9.7893,-23.14662 -0.183,-14.63821 12.6254,-19.94453 12.6254,-19.94453 l 1.0316,-1.66963 c 0,0 -12.421,4.46376 -14.2323,16.30245 -1.8114,11.83868 3.1052,20.8309 3.1052,20.8309 0,0 5.0917,10.75394 12.5313,10.94802"
           id="path88"
           sodipodi:nodetypes="ccsccscc" /><path
           style="opacity:1;fill:#6c7ccc;fill-opacity:1;stroke:none;stroke-width:0.4;stroke-linecap:round;stroke-dasharray:none;stroke-opacity:1"
           d="m 1931.516,459.08891 0.3518,0.35986 c 0,0 9.4967,-0.77684 11.2121,-6.40339 1.7154,-5.62655 5.4664,-8.96588 5.4664,-8.96588 l -0.5718,-2.83615 c 0,0 -1.6468,4.1856 -3.5452,4.13986 0,0 -2.0356,2.3787 -2.493,5.60368 -0.4575,3.22497 -2.0128,4.25422 -2.0128,4.25422 l -2.1728,1.76116 c 0,0 -4.8489,1.96701 -5.4665,1.92126 -0.6175,-0.0457 -0.7682,0.16538 -0.7682,0.16538 z"
           id="path115" /><path
           style="fill:#1b245b;fill-opacity:1;stroke:none;stroke-width:0.4;stroke-linecap:round;stroke-dasharray:none;stroke-opacity:1"
           d="m 1955.0886,441.40144 c -4.0255,16.37647 -22.3464,18.83643 -22.3464,18.83643 l -0.8087,-0.74396 c 7.8116,-1.60113 9.6554,-4.94896 9.6554,-4.94896 0.328,-0.49715 0.5321,-1.14352 0.6018,-1.42429 1.236,-4.98019 2.2367,-6.3924 2.6982,-6.84038 0.1797,-0.17439 0.3753,-0.31918 0.3753,-0.31918 3.6227,-2.523 3.3922,-9.72407 3.3922,-9.72407 4.6579,-15.13797 -13.6646,-22.67819 -13.6646,-22.67819 0,0 3.0342,-2.30291 6.8309,-0.70186 0,0 6.7044,1.44939 11.1681,10.82977 4.4638,9.38037 3.364,15.26737 3.364,15.26737 z"
           id="path87"
           sodipodi:nodetypes="ccccssccccscc" /><path
           style="fill:#1751bc;fill-opacity:1;stroke:none;stroke-width:0.4;stroke-linecap:round;stroke-dasharray:none;stroke-opacity:1"
           d="m 1927.8739,456.9201 c 0,0 1.578,3.49062 2.0083,3.68189 0.4304,0.19126 2.7734,-0.43035 2.7734,-0.43035 l -3.2515,-3.10809 z"
           id="path62" /><path
           style="fill:#0298ef;fill-opacity:1;stroke:none;stroke-width:0.4;stroke-linecap:round;stroke-dasharray:none;stroke-opacity:1"
           d="m 1921.7056,460.60199 c 0,0 7.8419,0.71725 8.846,0 1.0042,-0.71726 -2.2951,-3.77751 -2.2951,-3.77751 l -5.0686,0.0478 -0.6694,0.81288 z"
           id="path63" /><path
           style="fill:none;fill-opacity:1;stroke:#000000;stroke-width:0.5;stroke-linecap:round;stroke-dasharray:none;stroke-opacity:1"
           d="m 1906.5816,441.48645 c 0,0 2.7049,17.10862 15.1475,19.13731 12.4427,2.0287 24.4795,-5.95082 24.4795,-5.95082 0,0 8.7234,-6.01845 8.5882,-17.10862 -0.1353,-11.09014 -1.4201,-13.18646 -1.4201,-13.18646 0,0 -4.8689,-9.60247 -11.0902,-11.42828 -6.2213,-1.82581 -21.9775,-0.541 -21.9775,-0.541 0,0 -12.3073,4.66598 -14.0655,15.48567 -1.7582,10.81966 0.3381,13.5922 0.3381,13.5922 z"
           id="path60" /><path
           style="fill:#fac595;fill-opacity:1;stroke:none;stroke-width:0.4;stroke-linecap:round;stroke-dasharray:none;stroke-opacity:1"
           d="m 1912.9463,444.90579 c 0,0 0,11.51522 9.3157,13.19723 l 1.0674,-1.26149 5.9194,0.097 2.1025,2.1025 c 0,0 6.08,-0.6227 9.7395,-4.69394 l 1.4867,-5.64943 c 0,0 0.8463,-2.83614 2.15,-3.33933 l -9.4462,1.53243 -3.0191,-0.0915 -7.2734,-3.29359 c 0,0 -1.1665,-0.38882 -2.8819,1.34946 -1.7154,1.73828 -3.7739,1.25797 -3.7739,1.25797 z"
           id="path83" /><path
           style="fill:#ee9768;fill-opacity:1;stroke:none;stroke-width:0.4;stroke-linecap:round;stroke-dasharray:none;stroke-opacity:1"
           d="m 1944.8876,445.28971 c -2.4244,1.00638 -12.2137,1.50957 -12.2137,1.50957 0,0 4.9403,1.14361 8.9658,0.27445 0,0 -1.1893,2.8819 -1.9212,6.54145 -0.7319,3.65955 -8.3712,5.30634 -8.3712,5.30634 0,0 5.6265,0.0457 9.6063,-4.29996 0,0 1.6011,-3.93402 1.4638,-5.71805 -0.1372,-1.78403 2.4702,-3.6138 2.4702,-3.6138 z"
           id="path84" /><path
           style="fill:#f8d1bd;fill-opacity:1;stroke:none;stroke-width:0.4;stroke-linecap:round;stroke-dasharray:none;stroke-opacity:1"
           d="m 1922.3356,458.05238 c -8.4169,-0.86916 -9.4233,-13.22012 -9.4233,-13.22012 l 0.549,0.27447 c 0,0 1.0977,11.11588 8.8743,12.94565 z"
           id="path85" /><path
           style="fill:#396c94;fill-opacity:1;stroke:none;stroke-width:0.4;stroke-linecap:round;stroke-dasharray:none;stroke-opacity:1"
           d="m 1944.6097,445.37507 c 0,0 3.6341,-0.95632 3.921,-8.22445 0,0 0.526,-3.92097 0.3347,-4.44696 -0.1912,-0.52598 -1.0041,-2.82118 -3.8253,-5.4511 0,0 -0.7651,-1.09978 -5.4989,0.19127 -4.7339,1.29105 -18.3138,2.2952 -26.3948,-1.05197 0,0 -1.5301,-1.1715 -2.9407,1.38669 0,0 -2.7967,6.81515 -0.6666,13.07027 0,0 0.5072,1.45389 0.8115,1.85963 0.3043,0.40574 0.541,1.1834 2.4006,1.99488 0,0 5.5361,2.69062 8.7382,0.76936 0,0 2.1957,-3.24785 4.5973,-1.50956 l 6.793,2.90476 4.9175,-0.36595 z"
           id="path90"
           sodipodi:nodetypes="ccscscccsc" /><g
           id="g64"
           transform="translate(71.392564,-8.9575004)"><path
             style="opacity:1;fill:none;fill-opacity:1;stroke:#000000;stroke-width:0.4;stroke-linecap:round;stroke-dasharray:none;stroke-opacity:1"
             d="m 1850.2451,469.29202 c 0,0 0.5738,-2.29521 0.9802,-2.65383 0,0 0.3587,-1.02806 1.8171,-0.90852 1.4584,0.11954 4.1839,0.16736 4.1839,0.16736 0,0 0.8129,0.0239 1.2433,0.54989 0.4303,0.52598 1.4823,1.45841 1.4823,1.45841 0,0 4.0883,0.40644 9.3003,-4.04051 0,0 0.6962,-0.48519 1.4345,-4.37522 0.8189,-4.31489 2.816,-5.26816 2.816,-5.26816 0,0 -10.8253,2.44697 -13.1683,1.22765 -2.343,-1.21932 -5.9677,-2.82118 -5.9677,-2.82118 0,0 -1.6591,-0.95633 -3.9064,1.45841 -2.2474,2.41474 -9.0125,-0.40023 -9.0125,-0.40023 0,0 0.2914,10.47784 8.5414,13.28419"
             id="path61"
             sodipodi:nodetypes="ccscsccscscscc" /><path
             style="opacity:1;fill:none;fill-opacity:1;stroke:#000000;stroke-width:0.4;stroke-linecap:round;stroke-dasharray:none;stroke-opacity:1"
             d="m 1873.2171,454.33256 c 0,0 3.6341,-0.95632 3.921,-8.22445 0,0 0.526,-3.92097 0.3347,-4.44696 -0.1912,-0.52598 -1.0041,-2.82118 -3.8253,-5.4511 0,0 -0.7651,-1.09978 -5.4989,0.19127 -4.7339,1.29105 -18.3138,2.2952 -26.3948,-1.05197 0,0 -1.5301,-1.1715 -2.9407,1.38669 0,0 -2.7967,6.81515 -0.6666,13.07027 0,0 0.5072,1.45389 0.8115,1.85963 0.3043,0.40574 0.541,1.1834 2.4006,1.99488"
             id="path64"
             sodipodi:nodetypes="ccscscccsc" /></g><g
           id="g76"
           transform="translate(135.36387,-3.5476641)"><path
             style="opacity:1;fill:#15e4f1;fill-opacity:1;stroke:none;stroke-width:0.734593;stroke-linecap:round;stroke-dasharray:none;stroke-opacity:1"
             id="path70"
             sodipodi:type="arc"
             sodipodi:cx="1863.1527"
             sodipodi:cy="318.94028"
             sodipodi:rx="5.3144979"
             sodipodi:ry="9.0165386"
             sodipodi:start="0"
             sodipodi:end="6.2032733"
             sodipodi:open="true"
             sodipodi:arc-type="arc"
             d="m 1868.4672,318.94028 a 5.3144979,9.0165386 0 0 1 -5.2083,9.01474 5.3144979,9.0165386 0 0 1 -5.4164,-8.65457 5.3144979,9.0165386 0 0 1 4.9919,-9.36052 5.3144979,9.0165386 0 0 1 5.6158,8.28058"
             transform="matrix(0.99777219,0.06671323,-0.12306397,0.99239874,0,0)" /><path
             style="opacity:1;fill:#1b94bd;fill-opacity:1;stroke:none;stroke-width:0.4;stroke-linecap:round;stroke-dasharray:none;stroke-opacity:1"
             d="m 1818.6516,438.90676 c -2.1301,1.14959 -3.7869,-0.27048 -3.7869,-0.27048 0,0 -1.4201,4.66598 0.2705,7.84426 1.6906,3.17828 3.6517,-0.84529 3.6517,-0.84529 0,0 -1.0144,-5.64653 -0.1353,-6.72849 z"
             id="path73" /><path
             style="opacity:1;fill:#28c9f5;fill-opacity:1;stroke:none;stroke-width:0.4;stroke-linecap:round;stroke-dasharray:none;stroke-opacity:1"
             d="m 1819.8059,431.92776 7.2682,-20.1786 c 0,0 -1.0516,0.007 -1.3221,0.95371 l -7.7631,20.37251 z"
             id="path76" /><path
             style="opacity:1;fill:#1f78d5;fill-opacity:1;stroke:none;stroke-width:0.4;stroke-linecap:round;stroke-dasharray:none;stroke-opacity:1"
             d="m 1819.4881,432.07403 7.4116,-20.36988 c 0,0 1.5302,2.24739 1.5301,3.82532 0,0.48772 -3.9688,19.2223 -3.9688,19.2223 z"
             id="path75"
             sodipodi:nodetypes="ccscc" /><path
             style="opacity:1;fill:none;fill-opacity:1;stroke:#000000;stroke-width:0.4;stroke-linecap:round;stroke-dasharray:none;stroke-opacity:1"
             d="m 1817.9078,433.12501 7.7766,-20.48976 c 0,0 2.0625,-3.07684 2.6373,3.00921 l -3.9563,19.10731 z"
             id="path74" /><path
             style="opacity:1;fill:#20acdc;fill-opacity:1;stroke:none;stroke-width:0.4;stroke-linecap:round;stroke-dasharray:none;stroke-opacity:1"
             d="m 1823.0989,432.98385 c -3.2037,-2.82119 -6.8138,1.88876 -6.8138,1.88876 0,0 2.1517,-1.19542 3.2515,0.81288 0,0 1.6497,-2.10393 3.5623,-2.70164 z"
             id="path71"
             sodipodi:nodetypes="cccc" /><path
             style="opacity:1;fill:#20acdc;fill-opacity:1;stroke:none;stroke-width:0.4;stroke-linecap:round;stroke-dasharray:none;stroke-opacity:1"
             d="m 1821.1378,448.74926 c -3.5756,2.92262 -6.239,-2.70024 -6.239,-2.70024 0,0 2.6251,1.19542 3.7249,-0.81288 0,0 0.6015,2.91541 2.5141,3.51312 z"
             id="path72"
             sodipodi:nodetypes="cccc" /><path
             style="opacity:1;fill:none;fill-opacity:1;stroke:#000000;stroke-width:0.734593;stroke-linecap:round;stroke-dasharray:none;stroke-opacity:1"
             id="path69"
             sodipodi:type="arc"
             sodipodi:cx="1863.1527"
             sodipodi:cy="318.94028"
             sodipodi:rx="5.3144979"
             sodipodi:ry="9.0165386"
             sodipodi:start="0"
             sodipodi:end="6.2032733"
             sodipodi:open="true"
             sodipodi:arc-type="arc"
             d="m 1868.4672,318.94028 a 5.3144979,9.0165386 0 0 1 -5.2083,9.01474 5.3144979,9.0165386 0 0 1 -5.4164,-8.65457 5.3144979,9.0165386 0 0 1 4.9919,-9.36052 5.3144979,9.0165386 0 0 1 5.6158,8.28058"
             transform="matrix(0.99777219,0.06671323,-0.12306397,0.99239874,0,0)" /><path
             style="opacity:1;fill:#fb6d03;fill-opacity:1;stroke:none;stroke-width:0.4;stroke-linecap:round;stroke-dasharray:none;stroke-opacity:1"
             id="path67"
             sodipodi:type="arc"
             sodipodi:cx="1855.2418"
             sodipodi:cy="273.91187"
             sodipodi:rx="2.4864657"
             sodipodi:ry="5.7140889"
             sodipodi:start="0"
             sodipodi:end="6.2032733"
             sodipodi:open="true"
             sodipodi:arc-type="arc"
             d="m 1857.7283,273.91187 a 2.4864657,5.7140889 0 0 1 -2.4368,5.71294 2.4864657,5.7140889 0 0 1 -2.5342,-5.48469 2.4864657,5.7140889 0 0 1 2.3356,-5.93208 2.4864657,5.7140889 0 0 1 2.6275,5.24769"
             transform="rotate(5.2028258)" /><path
             style="opacity:1;fill:#ed9019;fill-opacity:1;stroke:none;stroke-width:0.544383;stroke-linecap:round;stroke-dasharray:none;stroke-opacity:1"
             id="path68"
             sodipodi:type="arc"
             sodipodi:cx="1854.3535"
             sodipodi:cy="273.96875"
             sodipodi:rx="3.383971"
             sodipodi:ry="7.7766252"
             sodipodi:start="0"
             sodipodi:end="6.2032733"
             sodipodi:open="true"
             sodipodi:arc-type="arc"
             d="m 1857.7375,273.96875 a 3.383971,7.7766252 0 0 1 -3.3164,7.77507 3.383971,7.7766252 0 0 1 -3.4489,-7.46443 3.383971,7.7766252 0 0 1 3.1786,-8.0733 3.383971,7.7766252 0 0 1 3.5759,7.14188"
             transform="rotate(5.2028258)" /><path
             style="opacity:1;fill:none;fill-opacity:1;stroke:#000000;stroke-width:0.4;stroke-linecap:round;stroke-dasharray:none;stroke-opacity:1"
             id="path65"
             sodipodi:type="arc"
             sodipodi:cx="1855.2418"
             sodipodi:cy="273.91187"
             sodipodi:rx="2.4864657"
             sodipodi:ry="5.7140889"
             sodipodi:start="0"
             sodipodi:end="6.2032733"
             sodipodi:open="true"
             sodipodi:arc-type="arc"
             d="m 1857.7283,273.91187 a 2.4864657,5.7140889 0 0 1 -2.4368,5.71294 2.4864657,5.7140889 0 0 1 -2.5342,-5.48469 2.4864657,5.7140889 0 0 1 2.3356,-5.93208 2.4864657,5.7140889 0 0 1 2.6275,5.24769"
             transform="rotate(5.2028258)" /><path
             style="opacity:1;fill:none;fill-opacity:1;stroke:#000000;stroke-width:0.544383;stroke-linecap:round;stroke-dasharray:none;stroke-opacity:1"
             id="path66"
             sodipodi:type="arc"
             sodipodi:cx="1854.3535"
             sodipodi:cy="273.96875"
             sodipodi:rx="3.383971"
             sodipodi:ry="7.7766252"
             sodipodi:start="0"
             sodipodi:end="6.2032733"
             sodipodi:open="true"
             sodipodi:arc-type="arc"
             d="m 1857.7375,273.96875 a 3.383971,7.7766252 0 0 1 -3.3164,7.77507 3.383971,7.7766252 0 0 1 -3.4489,-7.46443 3.383971,7.7766252 0 0 1 3.1786,-8.0733 3.383971,7.7766252 0 0 1 3.5759,7.14188"
             transform="rotate(5.2028258)" /></g><path
           style="fill:#01181e;fill-opacity:1;stroke:none;stroke-width:0.4;stroke-linecap:round;stroke-dasharray:none;stroke-opacity:1"
           d="m 1932.2241,448.56249 c -5.1562,2.70492 -9.3658,1.18339 -9.3658,1.18339 0,0 4.0405,2.77254 9.7377,-0.45643 0,0 0.8453,-0.49028 1.082,0.50716 0,0 0.7946,-1.97797 -1.8427,-1.70748 0,0 0.4057,0.15215 0.3888,0.47336 z"
           id="path77" /><path
           style="fill:#0095ed;fill-opacity:1;stroke:none;stroke-width:0.4;stroke-linecap:round;stroke-dasharray:none;stroke-opacity:1"
           d="m 1942.2033,412.91344 c -8.1539,-3.64044 -11.7151,7.60285 -11.7151,7.60285 -1.5301,6.69433 -5.4033,6.31179 -5.4033,6.31179 -6.8856,1.19542 -7.8419,-2.53428 -7.8419,-2.53428 -0.9563,-8.94172 4.8295,-14.01027 4.8295,-14.01027 0,0 14.4884,-3.96879 20.1308,2.62991 z"
           id="path79"
           sodipodi:nodetypes="cccccc" /><path
           style="fill:#2156b7;fill-opacity:1;stroke:none;stroke-width:0.4;stroke-linecap:round;stroke-dasharray:none;stroke-opacity:1"
           d="m 1938.9518,410.52259 c 0,0 -7.7017,0.5707 -9.4734,8.48185 -1.4143,6.31553 -4.9557,8.15699 -5.1107,8.0149 0,0 4.2641,0.64036 6.4074,-7.06027 2.0476,-7.35683 7.5364,-7.69642 7.5364,-7.69642 0,0 2.8877,0.0292 3.6049,0.60297 0.7173,0.5738 -1.3388,-1.48232 -1.3388,-1.48232 z"
           id="path80"
           sodipodi:nodetypes="cscscscc" /><path
           style="fill:#07d9f5;fill-opacity:1;stroke:none;stroke-width:0.4;stroke-linecap:round;stroke-dasharray:none;stroke-opacity:1"
           d="m 1917.9603,425.25013 c 0,0 -1.9605,-16.4011 18.0747,-15.58822 0,0 -5.9771,-1.48232 -13.8668,0.52598 0,0 -6.1684,5.11638 -4.8773,14.24936"
           id="path81" /><path
           style="fill:none;fill-opacity:1;stroke:#000000;stroke-width:0.4;stroke-linecap:round;stroke-dasharray:none;stroke-opacity:1"
           d="m 1942.2033,412.91344 c -7.5899,-3.33321 -10.982,5.32583 -11.7151,7.60285 -1.5301,6.69433 -5.4033,6.31179 -5.4033,6.31179 -6.8856,1.19542 -7.8419,-2.53428 -7.8419,-2.53428 -0.9563,-8.94172 4.8295,-14.01027 4.8295,-14.01027 0,0 14.4884,-3.96879 20.1308,2.62991 z"
           id="path78"
           sodipodi:nodetypes="cccccc" /><path
           style="fill:#163a7c;fill-opacity:1;stroke:none;stroke-width:0.4;stroke-linecap:round;stroke-dasharray:none;stroke-opacity:1"
           d="m 1938.8364,410.54011 c 0,0 -7.6086,0.74924 -9.1181,7.38215 0,0 2.5154,-5.54064 9.1181,-7.38215 z"
           id="path82"
           sodipodi:nodetypes="ccc" /><path
           style="fill:#65a3ba;fill-opacity:1;stroke:none;stroke-width:0.4;stroke-linecap:round;stroke-dasharray:none;stroke-opacity:1;filter:url(#filter93)"
           d="m 1932.4871,429.75066 c -13.0031,2.19954 -19.2782,13.77945 -19.2782,13.77945 0,0 -2.3289,-1.09976 -2.8465,-4.0756 -0.5175,-2.97584 -0.2264,-5.85465 -0.2264,-5.85465 0,0 0.4529,-3.75215 1.0674,-4.43142 0,0 0.1397,-2.11593 2.9759,-1.01807 2.8361,1.09786 7.8451,1.53243 7.8451,1.53243 0,0 8.9861,0.50167 10.4627,0.0679 z"
           id="path93" /><path
           style="fill:none;fill-opacity:1;stroke:#0c3c62;stroke-width:0.362115;stroke-linecap:round;stroke-dasharray:none;stroke-opacity:1"
           d="m 1942.7485,444.53922 c 0,0 3.7954,-0.63017 4.3462,-6.5953 0,0 0.6402,-4.30832 0.467,-4.78449 -0.1731,-0.47616 -0.9547,-2.69121 -3.5087,-5.07204 0,0 -1.0128,-0.53818 -5.2983,0.63059 -4.2855,1.16877 -17.6314,2.2608 -24.947,-0.76936 0,0 -1.8699,-0.64607 -2.415,0.7092 0,0 -2.6936,6.12115 -0.7652,11.78384 0,0 0.174,0.64133 0.8478,1.78054 0.056,0.0953 0.7486,0.97427 2.432,1.7089 0,0 3.1821,1.28073 6.6527,0.62787 -0.013,0.0275 0.5534,-0.10517 0.768,-0.28825 1.1956,-1.01993 2.9933,-2.73499 5.1893,-1.61583 l 5.4063,2.57247 c 1.7367,0.61721 3.145,0.33123 4.6576,0.332 z"
           id="path91"
           sodipodi:nodetypes="ccscscccsccscccc" /><path
           style="fill:#53a3cc;fill-opacity:1;stroke:none;stroke-width:0.369647;stroke-linecap:round;stroke-dasharray:none;stroke-opacity:1;filter:url(#filter92)"
           d="m 7090.1461,1668.2643 c -2.9057,-0.2491 -3.9141,-0.6019 -9.0966,-3.1825 -4.4047,-2.1933 -8.3009,-4.0299 -15.4324,-7.2747 -3.713,-1.6894 -4.1907,-1.8448 -5.998,-1.9513 -2.4168,-0.1424 -4.4768,0.3386 -6.7144,1.5679 -1.9357,1.0634 -2.9528,1.8476 -5.5397,4.2709 -1.16,1.0867 -2.5716,2.1405 -3.3784,2.5222 -5.0321,2.3805 -14.6304,1.5805 -25.6814,-2.1407 -9.1111,-3.0679 -11.9758,-5.2856 -14.7603,-11.4266 -5.3958,-11.9004 -6.101,-27.7257 -1.9656,-44.1134 1.2436,-4.9279 2.5987,-8.7755 3.6354,-10.3221 2.723,-4.0621 5.5016,-5.1405 8.994,-3.4904 3.7987,1.7948 12.9153,4.4177 19.8671,5.7158 10.8993,2.0352 21.5177,2.906 35.4534,2.9075 17.9503,0 33.5597,-1.5806 45.4782,-4.6105 7.5667,-1.9236 12.5401,-2.5853 15.8807,-2.1129 1.0834,0.1532 2.3271,0.4586 2.7637,0.6788 1.0273,0.5179 4.9621,4.5378 7.3083,7.4663 3.3456,4.176 6.0414,8.6399 7.4383,12.3169 l 0.6503,1.7116 -0.2891,3.9121 c -0.159,2.1516 -0.4444,5.1774 -0.6342,6.7239 -0.1897,1.5465 -0.5125,4.7373 -0.7172,7.0907 -0.8614,9.9009 -2.6678,16.2219 -6.1176,21.4066 -1.5921,2.3928 -4.7588,5.4549 -6.5418,6.3257 -0.7653,0.3738 -2.9924,0.973 -5.5309,1.4881 -16.4377,3.3355 -31.9538,5.1305 -39.0718,4.5201 z m 25.1608,-5.0274 c 11.4841,-1.8903 12.5405,-2.1052 14.2646,-2.9018 5.4567,-2.5212 9.5131,-7.298 11.9521,-14.075 0.9491,-2.6374 1.5605,-5.3936 2.1051,-9.4903 1.3674,-10.2859 1.7263,-13.3862 1.8642,-16.1013 0.1391,-2.7383 0.1061,-3.0882 -0.4157,-4.4011 -2.2844,-5.7477 -6.5651,-12.0211 -11.5243,-16.889 -1.6589,-1.6283 -1.9209,-1.7924 -3.2672,-2.0458 -3.1158,-0.5865 -8.9344,0.1827 -17.7048,2.3405 -12.9613,3.1889 -28.269,4.7772 -45.9857,4.7716 -20.5586,-0.01 -34.8918,-2.0867 -48.6568,-7.0617 -1.7388,-0.6285 -2.4377,-0.7513 -4.2788,-0.752 -3.4441,0 -5.2527,1.0678 -6.4731,3.8268 -1.6363,3.6991 -3.8445,11.9763 -4.7831,17.9286 -0.618,3.9189 -0.757,13.262 -0.2543,17.0827 0.8851,6.726 2.73,12.3729 5.4172,16.5813 1.3662,2.1396 5.8261,5.3999 9.3074,6.804 7.1379,2.8788 17.8643,4.035 25.1761,2.7137 2.6527,-0.4794 3.3289,-0.7985 5.4191,-2.5574 5.565,-4.6831 9.1998,-6.3782 13.0174,-6.0708 2.0597,0.1658 2.1575,0.2069 14.6316,6.1384 7.1452,3.3976 11.2371,5.2058 12.5524,5.5467 2.7217,0.7055 5.4587,0.9018 10.7107,0.7683 4.2291,-0.1075 5.3301,-0.2478 16.9259,-2.1564 z"
           id="path92"
           transform="matrix(0.26458333,0,0,0.26458333,57.187956,5.1753806)" /></g><g
         id="g116"
         transform="matrix(2.162187,0,0,2.162187,-2395.6343,-580.29932)"><path
           style="fill:#fe8413;fill-opacity:1;stroke:none;stroke-width:0.3;stroke-linecap:round;stroke-dasharray:none;stroke-opacity:1"
           d="m 1895.0595,442.2924 -1.2433,-2.96463 c 0,0 4.973,-8.41573 7.1725,-8.84607 2.1996,-0.43038 3.1559,-0.28692 3.1559,-0.28692 l -2.0561,8.65481 -4.3513,4.01662 z"
           id="path52" /><path
           style="fill:#f56608;fill-opacity:1;stroke:none;stroke-width:0.3;stroke-linecap:round;stroke-dasharray:none;stroke-opacity:1"
           d="m 1900.5106,430.62513 h 2.3908 c 0,0 0.6216,1.62578 -3.2515,5.54675 0,0 2.1996,6.16834 -4.5904,5.64235 l 0.7651,1.57795 6.2161,0.14345 c 0,0 1.9605,-1.29105 4.4948,-3.25153 2.5343,-1.96048 1.7214,-3.63406 1.7214,-3.63406 l -2.1518,-0.76507 2.2474,-3.34716 0.2391,-2.0083 c 0,0 -0.9563,-1.76922 -2.2952,-1.91267 -1.3389,-0.14345 -2.9168,0.47817 -2.9168,0.47817 0,0 -2.1517,0.66941 -2.869,1.53012 z"
           id="path51" /><path
           style="mix-blend-mode:normal;fill:#fead61;fill-opacity:1;stroke:none;stroke-width:0.3;stroke-linecap:round;stroke-dasharray:none;stroke-opacity:1;filter:url(#filter53)"
           d="m 1905.3879,428.90375 c -4.7817,0.14343 -11.5238,11.2369 -11.5238,11.2369 l -0.024,-1.09978 c 0,0 6.7421,-11.71506 11.5477,-10.13712 z"
           id="path53" /><path
           style="mix-blend-mode:normal;fill:none;fill-opacity:1;stroke:#8d2400;stroke-width:0.3;stroke-linecap:round;stroke-dasharray:none;stroke-opacity:1;filter:url(#filter54)"
           d="m 1900.7497,430.69686 c 0.6301,-1.34415 5.0343,-2.07538 1.6497,3.06028 0,0 -1.554,1.92461 -2.1756,2.13979 0,0 2.8331,-0.10759 3.7536,0.34667"
           id="path47"
           sodipodi:nodetypes="cccc" /><path
           style="mix-blend-mode:normal;fill:none;fill-opacity:1;stroke:#8d2400;stroke-width:0.3;stroke-linecap:round;stroke-dasharray:none;stroke-opacity:1;filter:url(#filter55)"
           d="m 1905.0771,428.73638 c 0,0 2.2235,0.81288 0.3347,3.63406 -1.8887,2.8212 -2.4147,3.4667 -2.4147,3.4667"
           id="path48" /><path
           style="mix-blend-mode:normal;fill:#992800;fill-opacity:1;stroke:none;stroke-width:0.3;stroke-linecap:round;stroke-dasharray:none;stroke-opacity:1;filter:url(#filter56)"
           d="m 1907.3364,439.23212 c 0.063,-0.40667 0.6555,-1.28369 0.8848,-1.76822 0.2793,-0.59035 -0.406,-0.87212 -0.7189,-0.96809 -2.1672,-0.66476 -3.4988,1.58719 -3.3577,1.85171 0,0 -0.9563,-0.47815 0.526,-1.81703 1.4824,-1.33887 3.9449,-4.87729 3.9449,-4.87729 0,0 0.2869,0.0239 -1.3388,2.24738 -1.6258,2.22347 -0.6695,1.88876 -0.6695,1.88876 0,0 2.0322,0.54989 1.9605,1.38668 -0.072,0.83679 -1.2313,2.0561 -1.2313,2.0561 z"
           id="path49"
           sodipodi:nodetypes="csscccscsc" /><path
           style="fill:none;fill-opacity:1;stroke:#652102;stroke-width:0.4;stroke-linecap:round;stroke-dasharray:none;stroke-opacity:1"
           d="m 1893.7695,439.37972 c 0,0 5.0717,-9.94058 11.124,-10.75206 0,0 4.7674,-0.30429 3.5164,3.88834 0,0 -1.5216,2.09631 -2.4007,3.41496 0,0 4.4294,-0.2705 1.7921,2.84016 -2.6373,3.11066 -5.7818,4.76742 -5.7818,4.76742 l -6.3566,-0.16906 z"
           id="path46" /><path
           style="mix-blend-mode:normal;fill:none;fill-opacity:1;stroke:#8d2400;stroke-width:0.3;stroke-linecap:round;stroke-dasharray:none;stroke-opacity:1;filter:url(#filter57)"
           d="m 1900.1632,436.56092 c 0,0 0.896,4.19264 -1.5553,5.00412"
           id="path50" /><g
           id="g115"><path
             style="fill:#0399f0;fill-opacity:1;stroke:none;stroke-width:0.4;stroke-linecap:round;stroke-dasharray:none;stroke-opacity:1"
             d="m 1894.1422,438.51571 -1.7692,3.2037 -1.3389,6.98125 0.6216,4.8773 0.4782,0.81288 c 0,0 1.7672,0.20436 2.8492,-1.55385 l 2.4006,-0.10142 1.7582,-7.77664 -1.251,-2.02869 c 0,0 -2.6962,-1.01861 -3.7487,-4.41453 z"
             id="path38" /><path
             style="fill:#0855cf;fill-opacity:1;stroke:none;stroke-width:0.4;stroke-linecap:round;stroke-dasharray:none;stroke-opacity:1"
             d="m 1896.8677,452.76505 c 1.8649,-3.63405 0.6695,-9.99365 0.6695,-9.99365 0,0 2.9646,1.19541 5.3076,0.43034 l -0.3825,7.88975 c 0,0 -3.9689,2.00826 -5.5946,1.67356 z"
             id="path37" /><path
             style="fill:#6cc8fd;fill-opacity:1;stroke:none;stroke-width:0.4;stroke-linecap:round;stroke-dasharray:none;stroke-opacity:1"
             d="m 1894.3335,438.51571 c 0,0 -1.4824,0.54988 -2.104,3.34716 -0.6216,2.79728 -0.9085,4.59039 -0.9085,4.59039 l -0.3108,4.35131 c 0,0 -0.096,2.96466 0.6694,3.1559 0,0 -0.3107,-11.95414 2.6539,-15.44476 z"
             id="path39" /><path
             style="fill:none;fill-opacity:1;stroke:#000000;stroke-width:0.4;stroke-linecap:round;stroke-dasharray:none;stroke-opacity:1"
             d="m 1902.8612,443.20073 c -0.4734,7.77663 -0.4734,7.77663 -0.4734,7.77663 0,0 -2.5696,2.16395 -7.4385,1.92726 m 0,0 c 0,0 -1.437,2.11323 -2.8063,1.36937 -1.3694,-0.74385 -1.0989,-3.48258 -1.0989,-3.48258 0,0 0.1183,-10.49846 3.1952,-12.32428 0,0 1.2882,6.43569 8.6219,4.7336"
             id="path36" /></g></g><g
         id="g112"
         transform="matrix(2.162187,0,0,2.162187,-2146.5755,-590.71807)"><path
           style="fill:#bf9869;fill-opacity:1;stroke:none;stroke-width:0.4;stroke-linecap:round;stroke-dasharray:none;stroke-opacity:1"
           id="path112"
           sodipodi:type="arc"
           sodipodi:cx="1808.3911"
           sodipodi:cy="470.79791"
           sodipodi:rx="3.7036316"
           sodipodi:ry="3.8815353"
           sodipodi:start="0"
           sodipodi:end="6.2032733"
           sodipodi:open="true"
           sodipodi:arc-type="arc"
           d="m 1812.0947,470.79791 a 3.7036316,3.8815353 0 0 1 -3.6296,3.88076 3.7036316,3.8815353 0 0 1 -3.7747,-3.72571 3.7036316,3.8815353 0 0 1 3.4789,-4.02961 3.7036316,3.8815353 0 0 1 3.9136,3.56471" /><path
           style="fill:#3da0bf;fill-opacity:1;stroke:none;stroke-width:0.4;stroke-linecap:round;stroke-dasharray:none;stroke-opacity:1"
           id="path110"
           sodipodi:type="arc"
           sodipodi:cx="1808.3264"
           sodipodi:cy="470.60382"
           sodipodi:rx="2.1833639"
           sodipodi:ry="2.4259596"
           sodipodi:start="0"
           sodipodi:end="6.2032733"
           sodipodi:open="true"
           sodipodi:arc-type="arc"
           d="m 1810.5098,470.60382 a 2.1833639,2.4259596 0 0 1 -2.1398,2.42548 2.1833639,2.4259596 0 0 1 -2.2252,-2.32857 2.1833639,2.4259596 0 0 1 2.0508,-2.51851 2.1833639,2.4259596 0 0 1 2.3072,2.22794" /><path
           style="opacity:1;fill:#62b3cd;fill-opacity:1;stroke:none;stroke-width:0.431312;stroke-linecap:round;stroke-dasharray:none;stroke-opacity:1;filter:url(#filter111)"
           id="path111"
           sodipodi:type="arc"
           sodipodi:cx="1844.6758"
           sodipodi:cy="-272.55048"
           sodipodi:rx="1.1831123"
           sodipodi:ry="1.3880858"
           sodipodi:start="0"
           sodipodi:end="6.2032733"
           sodipodi:open="true"
           sodipodi:arc-type="arc"
           d="m 1845.8589,-272.55048 a 1.1831123,1.3880858 0 0 1 -1.1595,1.38781 1.1831123,1.3880858 0 0 1 -1.2058,-1.33236 1.1831123,1.3880858 0 0 1 1.1113,-1.44104 1.1831123,1.3880858 0 0 1 1.2502,1.27479"
           transform="matrix(0.92080324,0.39002742,-0.3998339,0.91658761,0,0)" /><path
           style="fill:none;fill-opacity:1;stroke:#000000;stroke-width:0.4;stroke-linecap:round;stroke-dasharray:none;stroke-opacity:1"
           id="path108"
           sodipodi:type="arc"
           sodipodi:cx="1808.3264"
           sodipodi:cy="470.60382"
           sodipodi:rx="2.1833639"
           sodipodi:ry="2.4259596"
           sodipodi:start="0"
           sodipodi:end="6.2032733"
           sodipodi:open="true"
           sodipodi:arc-type="arc"
           d="m 1810.5098,470.60382 a 2.1833639,2.4259596 0 0 1 -2.1398,2.42548 2.1833639,2.4259596 0 0 1 -2.2252,-2.32857 2.1833639,2.4259596 0 0 1 2.0508,-2.51851 2.1833639,2.4259596 0 0 1 2.3072,2.22794" /><path
           style="fill:none;fill-opacity:1;stroke:#000000;stroke-width:0.4;stroke-linecap:round;stroke-dasharray:none;stroke-opacity:1"
           id="path109"
           sodipodi:type="arc"
           sodipodi:cx="1808.3911"
           sodipodi:cy="470.79791"
           sodipodi:rx="3.7036316"
           sodipodi:ry="3.8815353"
           sodipodi:start="0"
           sodipodi:end="6.2032733"
           sodipodi:open="true"
           sodipodi:arc-type="arc"
           d="m 1812.0947,470.79791 a 3.7036316,3.8815353 0 0 1 -3.6296,3.88076 3.7036316,3.8815353 0 0 1 -3.7747,-3.72571 3.7036316,3.8815353 0 0 1 3.4789,-4.02961 3.7036316,3.8815353 0 0 1 3.9136,3.56471" /></g><path
         style="opacity:1;fill:none;fill-opacity:1;stroke:#000000;stroke-width:1.08109;stroke-linecap:round;stroke-dasharray:none;stroke-opacity:1"
         d="m 1753.5557,466.95204 c 0,0 7.6159,4.59919 12.7591,6.5774"
         id="path119"
         sodipodi:nodetypes="cc" /></g></g></svg>
